<svg width="22" height="30" viewBox="0 0 22 30" fill="none" xmlns="http://www.w3.org/2000/svg">
<path id="Vector" d="M0 18.2097C0 16.9051 0.355797 15.4078 1.06739 13.7177C1.77899 12.0277 2.69813 10.3821 3.82482 8.81068C6.1375 5.75675 8.15369 3.44407 9.84372 1.88746L10.9556 0.820068C11.3262 1.20552 11.7413 1.56131 12.1861 1.88746C12.7939 2.5101 13.7278 3.53302 14.9731 4.98586C16.2184 6.4387 17.3006 7.72846 18.1901 8.91445C19.2427 10.4118 20.147 12.0277 20.8734 13.7325C21.5999 15.4374 21.9705 16.9347 21.9705 18.2245C21.9705 19.707 21.6888 21.1153 21.1106 22.4644C20.5325 23.8135 19.7616 24.9846 18.7831 25.9631C17.8047 26.9415 16.6335 27.7272 15.2696 28.3054C13.9057 28.8836 12.4677 29.1801 10.9556 29.1801C9.4731 29.1801 8.06474 28.8984 6.71567 28.3351C5.36661 27.7717 4.19544 27.0156 3.217 26.0372C2.23856 25.0736 1.45284 23.9024 0.874668 22.5533C0.296497 21.2043 0 19.7514 0 18.2097ZM3.35042 13.866C3.35042 15.0964 3.60245 16.0749 4.12132 16.8161C4.64019 17.5425 5.42591 17.9132 6.47847 17.9132C7.54587 17.9132 8.33158 17.5425 8.86528 16.8161C9.38415 16.0897 9.651 15.1113 9.66582 13.866C9.651 12.6207 9.38415 11.6422 8.86528 10.901C8.34641 10.1746 7.54587 9.80395 6.47847 9.80395C5.42591 9.80395 4.64019 10.1746 4.12132 10.901C3.60245 11.6422 3.35042 12.6207 3.35042 13.866ZM5.67793 13.866C5.67793 13.6436 5.67793 13.4657 5.67793 13.3471C5.67793 13.2285 5.69276 13.0654 5.70758 12.8579C5.7224 12.6503 5.73723 12.4873 5.7817 12.3835C5.82618 12.2797 5.85583 12.1463 5.91513 12.0277C5.97443 11.9091 6.04855 11.8053 6.1375 11.7608C6.24128 11.7015 6.34505 11.6719 6.47847 11.6719C6.68602 11.6719 6.8491 11.7312 6.9677 11.8498C7.08629 11.9684 7.17524 12.1611 7.21972 12.4131C7.26419 12.68 7.29384 12.8875 7.30867 13.0802C7.32349 13.273 7.32349 13.525 7.32349 13.8511C7.32349 14.1921 7.32349 14.4441 7.30867 14.622C7.29384 14.7999 7.26419 15.0223 7.21972 15.2892C7.17524 15.5412 7.08629 15.7339 6.9677 15.8525C6.8491 15.9711 6.68602 16.0304 6.47847 16.0304C6.34505 16.0304 6.24128 16.0007 6.1375 15.9414C6.03373 15.8821 5.9596 15.7932 5.91513 15.6746C5.85583 15.556 5.81135 15.4226 5.7817 15.3188C5.75205 15.2002 5.7224 15.0371 5.70758 14.8444C5.69276 14.6369 5.67793 14.4738 5.67793 14.37C5.67793 14.2662 5.67793 14.0883 5.67793 13.866ZM6.5526 25.3552H8.50948L15.9071 9.43332H13.9057L6.5526 25.3552ZM12.9273 20.9226C12.9421 22.1679 13.2238 23.1463 13.7427 23.8876C14.2615 24.614 15.0621 24.9846 16.1146 24.9846C17.182 24.9846 17.9678 24.614 18.4866 23.8876C19.0055 23.1612 19.2575 22.1679 19.2723 20.9226C19.2575 19.6773 19.0055 18.6989 18.4866 17.9725C17.9678 17.246 17.182 16.8754 16.1146 16.8754C15.0621 16.8754 14.2615 17.246 13.7427 17.9725C13.209 18.6989 12.9421 19.6773 12.9273 20.9226ZM15.2548 20.9226C15.2548 20.5816 15.2548 20.3296 15.2696 20.1517C15.2845 19.9738 15.3141 19.7514 15.3586 19.4846C15.4031 19.2177 15.492 19.0398 15.6106 18.9212C15.7292 18.8027 15.8923 18.7433 16.0998 18.7433C16.2332 18.7433 16.3518 18.773 16.4556 18.8323C16.5594 18.8916 16.6335 18.9805 16.6928 19.114C16.7521 19.2474 16.7966 19.366 16.8411 19.4698C16.8855 19.5735 16.9004 19.7366 16.9152 19.9442L16.93 20.4186V20.9226C16.93 21.1598 16.93 21.3377 16.93 21.4415L16.9152 21.9159L16.8411 22.3903L16.6928 22.7461L16.4556 23.0277L16.0998 23.1167C15.8923 23.1167 15.7292 23.0574 15.6106 22.9388C15.492 22.8202 15.4031 22.6275 15.3586 22.3754C15.3141 22.1086 15.2845 21.8862 15.2696 21.7083C15.2548 21.5304 15.2548 21.2636 15.2548 20.9226Z" fill="white"/>
</svg>
